# xmcd CD database file
#
# Track frame offsets:
#	150
#	22040
#	44666
#	74181
#	96376
#	122475
#	142385
#	160916
#	187795
#	219892
#	248766
#
# Disc length: 3572 seconds
#
# Revision: 0
# Processed by: cddbd v1.5.1PL2 Copyright (c) Steve Scherf et al.
# Submitted via: CDex 1.51
#
DISCID=a60df20b
DTITLE=Skinny Williams - Skinny Swings Again
DYEAR=2006
DGENRE=Blues
TTITLE0=The Cooker
TTITLE1=Cold Duck Time
TTITLE2=Cleo's Mood
TTITLE3=Cape Verdean Blues
TTITLE4=Clockwise
TTITLE5=Honky Tonk
TTITLE6=Jeannie
TTITLE7=Sister Sadie
TTITLE8=Pink Panther
TTITLE9=Bye Bye Blackbird
TTITLE10=Miss Celie's Blues
EXTD=YEAR: 2006
EXTT0=
EXTT1=
EXTT2=
EXTT3=
EXTT4=
EXTT5=
EXTT6=
EXTT7=
EXTT8=
EXTT9=
EXTT10=
PLAYORDER=
